<svg width="14" height="22" viewBox="0 0 14 22" fill="none" xmlns="http://www.w3.org/2000/svg">
<path id="Vector" d="M7.01691 21.302C6.85697 21.1197 6.72032 20.9659 6.5856 20.8103C5.8355 19.9421 5.13088 19.0382 4.46549 18.105C3.61323 16.9098 2.82455 15.6748 2.1348 14.3783C1.72139 13.601 1.34634 12.8066 1.02151 11.989C0.683965 11.1395 0.410438 10.2693 0.226147 9.37404C0.0601767 8.56717 -0.0297058 7.75022 0.00887685 6.92618C0.0509082 6.02921 0.262574 5.16956 0.642149 4.35154C1.03035 3.51506 1.56447 2.78349 2.2415 2.15791C2.85106 1.59475 3.54188 1.15302 4.31138 0.83336C4.77286 0.641779 5.24922 0.498898 5.7398 0.41244C6.28621 0.316328 6.83779 0.282217 7.39519 0.313539C8.07653 0.351726 8.73696 0.480877 9.3767 0.709358C10.1033 0.968946 10.7678 1.34224 11.3714 1.82366C12.19 2.47692 12.8312 3.27006 13.2932 4.20672C13.6247 4.87908 13.8389 5.58641 13.9391 6.32956C14.0202 6.93005 14.0127 7.52924 13.9611 8.13102C13.8519 9.40772 13.5169 10.6299 13.0683 11.8251C12.7105 12.7783 12.2747 13.6963 11.7904 14.5918C11.3188 15.4639 10.8002 16.3078 10.2466 17.1306C9.60151 18.0898 8.91823 19.0215 8.18021 19.9121C7.81184 20.3566 7.4286 20.7891 7.05269 21.2278C7.03889 21.2439 7.0335 21.2668 7.01691 21.3022V21.302ZM3.27784 6.88156C3.26297 8.91171 4.91879 10.596 6.99902 10.5965C9.08938 10.5969 10.6562 8.94411 10.7288 7.03946C10.8112 4.88208 9.08722 3.17395 7.00634 3.17502C4.91706 3.17609 3.26706 4.85934 3.27762 6.88135L3.27784 6.88156Z" fill="white"/>
</svg>
