<svg width="44" height="44" viewBox="0 0 44 44" fill="none" xmlns="http://www.w3.org/2000/svg">
<path id="Vector" d="M21.9737 43.9804C16.957 43.9791 11.9391 43.9198 6.92377 43.9992C3.30494 44.0563 0.473749 41.2006 0.185597 38.2172C0.128313 37.6259 0.0124447 37.0355 0.0120107 36.4447C0.00159553 26.6982 -0.010995 16.9517 0.0172128 7.20526C0.0241562 4.81355 0.901636 2.77722 2.8727 1.31429C4.14379 0.370693 5.60104 0.0105197 7.15463 0.00964759C17.0989 0.00485109 27.0433 -0.0130267 36.9871 0.0170603C41.1445 0.0297056 44.0017 3.01966 44 7.20788C43.9961 17.1641 44.0017 27.1207 43.9978 37.0769C43.9965 40.9351 40.9909 44.0489 37.1143 43.9974C32.0686 43.9307 27.0211 43.9813 21.9745 43.98L21.9737 43.9804ZM16.7353 14.6808C16.7392 14.7759 16.7427 14.8705 16.7466 14.9655C18.6343 15.2193 18.633 16.6203 18.6764 17.9455C18.7055 18.8394 18.6742 19.7472 18.5436 20.6302C18.4729 21.109 18.1379 21.5481 17.9217 22.0051C17.519 21.736 17.1076 21.4792 16.7188 21.1914C16.5812 21.0894 16.4797 20.9228 16.3933 20.768C15.4225 19.0256 14.3993 17.3084 13.5174 15.5215C13.1147 14.7052 12.5809 14.3019 11.7364 14.3089C10.4562 14.3189 9.17561 14.3756 7.89628 14.4331C6.82743 14.4815 6.57269 14.8892 7.011 15.8751C8.50601 19.2357 10.2293 22.469 12.3791 25.4607C15.0502 29.1776 18.4994 31.3299 23.2322 30.9475C24.1687 30.872 24.4811 30.613 24.6048 29.6751C24.6821 29.0882 24.7484 28.4856 24.9394 27.9313C25.3052 26.87 25.931 26.7078 26.7312 27.4726C27.3974 28.1092 27.9728 28.8405 28.6086 29.5111C29.4288 30.3767 30.3548 31.0473 31.6242 31.0198C32.9964 30.9902 34.3699 30.9867 35.7412 30.9326C37.0106 30.8825 37.4528 30.1124 36.8713 29.0062C36.7055 28.6905 36.5267 28.3656 36.2863 28.1088C35.1441 26.8875 33.9988 25.6674 32.8137 24.4888C32.1805 23.8591 32.0551 23.2399 32.5876 22.5144C33.0289 21.9131 33.5059 21.3357 33.9194 20.7161C34.9436 19.1812 36.0233 17.6743 36.9203 16.0657C37.527 14.9778 37.0987 14.4187 35.8753 14.4166C34.264 14.4135 32.6518 14.4624 31.0409 14.4331C30.3336 14.4205 30.0038 14.7366 29.6861 15.3388C28.6867 17.233 27.6335 19.1006 26.5403 20.942C26.2686 21.3998 25.7674 21.7203 25.2558 22.2161C25.0114 21.7613 24.7992 21.477 24.7033 21.1569C24.6022 20.8203 24.5731 20.4497 24.5796 20.0947C24.6065 18.5974 24.6816 17.1004 24.6916 15.6035C24.6977 14.741 24.4473 13.9919 23.4535 13.7887C21.6469 13.4193 19.8338 13.408 18.048 13.8576C17.572 13.9775 17.1714 14.3991 16.7361 14.6821L16.7353 14.6808Z" fill="white"/>
</svg>
