<svg width="32" height="28" viewBox="0 0 32 28" fill="none" xmlns="http://www.w3.org/2000/svg">
<path d="M0 8.21333C0 5.3384 0 3.90093 0.561132 2.80285C1.05472 1.83695 1.84231 1.05165 2.81102 0.5595C3.91231 0 5.35397 0 8.23729 0H23.7627C26.646 0 28.0877 0 29.189 0.5595C30.1577 1.05165 30.9453 1.83695 31.4389 2.80285C32 3.90093 32 5.3384 32 8.21333V19.7867C32 22.6616 32 24.0991 31.4389 25.1972C30.9453 26.1631 30.1577 26.9484 29.189 27.4405C28.0877 28 26.646 28 23.7627 28H8.23728C5.35397 28 3.91231 28 2.81102 27.4405C1.84231 26.9484 1.05472 26.1631 0.561132 25.1972C0 24.0991 0 22.6616 0 19.7867V8.21333Z" fill="#2B2E33"/>
<path fill-rule="evenodd" clip-rule="evenodd" d="M16.0723 15.2344C16.1022 15.1066 16.3173 14.4857 16.3758 14.3075L17.2844 11.5457C17.386 11.2397 17.4906 10.9293 17.5872 10.6256C17.841 9.822 18.0378 9.03871 18.2492 8.2261L18.3414 7.85175C18.3611 7.76755 18.3545 7.74651 18.397 7.7638C18.416 7.77131 18.4145 7.77582 18.424 7.81942L18.6552 8.73652C18.7408 9.06201 18.822 9.38224 18.9163 9.70022C19.1043 10.3332 19.3018 10.9353 19.5081 11.5555L20.5725 14.7728C20.6207 14.9186 20.691 15.0945 20.7239 15.2381L16.0723 15.2351V15.2344ZM14.0511 21.8412C14.1104 21.6285 14.1864 21.4165 14.253 21.2083L15.2566 18.0849C15.3751 17.7135 15.5214 17.2828 15.6341 16.9084C15.6363 16.9009 15.6436 16.8761 15.6458 16.8716C15.6568 16.8491 15.6509 16.8551 15.6721 16.843H21.1408L22.7919 21.8435H24.9278C24.8898 21.6924 24.663 21.0384 24.5972 20.8422L22.9462 15.8711C22.0611 13.2228 21.1935 10.5639 20.3055 7.91865L19.729 6.18444C19.7173 6.14911 19.6639 5.9514 19.6361 5.94238H17.2485C17.2119 5.97395 17.0971 6.36485 17.073 6.44077C16.9171 6.93014 16.7379 7.43755 16.5807 7.92917C16.3692 8.58993 16.1447 9.25295 15.9245 9.91371C15.4834 11.2375 15.054 12.5665 14.61 13.891C13.8353 16.2033 13.0782 18.5367 12.3087 20.8527C12.1989 21.182 12.0958 21.5187 11.9824 21.8435L14.0511 21.8412Z" fill="#BBBCC5"/>
<path fill-rule="evenodd" clip-rule="evenodd" d="M31.7953 21.8443V21.1399H28.3952L28.3916 5.09375H26.3792C26.3624 5.15689 26.3741 5.52148 26.3741 5.61544V21.8443H31.796H31.7953Z" fill="#BBBCC5"/>
<path fill-rule="evenodd" clip-rule="evenodd" d="M8.01326 3.12132C8.03008 3.19649 8.07763 3.3115 8.10396 3.38742L8.34317 4.06998C8.37316 4.15718 8.35999 4.13313 8.57798 4.20078C8.73159 4.24814 8.63284 4.2286 8.93568 4.06096C9.45286 3.77456 10.0893 3.60166 10.6949 3.72645C11.3613 3.86326 11.6664 4.41277 11.5596 5.01715C11.5208 5.2374 11.433 5.38474 11.3226 5.51629C10.9459 5.96582 10.3277 6.09436 9.72424 6.09436C9.65841 6.09436 9.23779 6.07857 9.19902 6.1109C9.17269 6.13345 9.13611 6.17705 9.10905 6.20411C8.99859 6.31762 9.01395 6.26274 9.01395 6.47398C9.01395 6.56193 9.00444 7.17232 9.022 7.2054C9.0242 7.20991 9.19537 7.38731 9.20195 7.39182C9.24584 7.42114 9.80032 7.40235 9.90492 7.4046C10.4631 7.41438 11.1207 7.56697 11.5098 7.98192C11.8873 8.38409 12.0095 9.09522 11.7278 9.6575C11.4652 10.1799 10.9576 10.4137 10.3468 10.4581C9.90054 10.4904 9.47334 10.4107 9.08272 10.2814C8.90496 10.2228 8.73086 10.1529 8.57578 10.0702C8.53848 10.0499 8.35853 9.94616 8.33731 9.94691C8.33073 9.94691 8.0769 10.0349 8.06739 10.0401C8.02935 10.0612 7.8911 10.5062 7.86769 10.5776C7.8355 10.6753 7.69359 11.064 7.68262 11.1249C8.32341 11.5887 9.28461 11.854 10.2582 11.8405C10.7425 11.8337 11.2392 11.7488 11.651 11.5902C12.2362 11.3647 12.7198 11.0053 13.0519 10.4972C13.1601 10.3318 13.2508 10.1506 13.3284 9.94015C13.4842 9.51392 13.539 8.96066 13.4425 8.47956C13.3957 8.24578 13.3284 8.04883 13.2318 7.85639C13.0599 7.51511 12.8675 7.2926 12.5822 7.05656C12.433 6.93252 12.2457 6.82127 12.068 6.73482C12.0285 6.71528 11.9575 6.69423 11.9253 6.66792C11.929 6.66416 12.2253 6.47623 12.3467 6.36949C12.482 6.24997 12.5866 6.15149 12.7 5.99964C13.4593 4.98031 13.2216 3.59039 12.3642 2.89129C11.2941 2.01855 9.38995 2.19219 8.22174 2.9627C8.16175 3.00254 8.06154 3.0717 8.01545 3.11981L8.01326 3.12132Z" fill="#BBBCC5"/>
<path fill-rule="evenodd" clip-rule="evenodd" d="M2.56347 3.59094C2.57737 3.68416 2.70978 4.19157 2.74269 4.32312C2.75732 4.38325 2.77195 4.44038 2.78731 4.50278C2.83706 4.70424 2.77927 4.63282 3.01189 4.74032C3.09381 4.77791 3.09308 4.7982 3.17062 4.75611C3.3674 4.64936 3.55247 4.54111 3.7507 4.43362L4.33737 4.11113C4.34981 4.4261 4.3381 4.76888 4.3381 5.08686V10.9525C4.3381 11.1149 4.33444 11.2803 4.33737 11.4419C4.3381 11.4953 4.34615 11.4983 4.37248 11.5238C4.39589 11.5464 4.41198 11.5637 4.43466 11.587C4.46099 11.614 4.52317 11.6967 4.56706 11.6967H5.63213C5.67456 11.6967 5.86256 11.5028 5.86256 11.4599V2.69114C5.86256 2.64378 5.78794 2.58665 5.76088 2.55883C5.73381 2.53102 5.67822 2.45435 5.63213 2.45435H4.65192C4.60071 2.45435 4.19107 2.68813 4.11865 2.72947C3.94894 2.8272 3.77046 2.92342 3.59782 3.01588C3.35204 3.14743 3.05724 3.32258 2.81731 3.44586C2.75805 3.47593 2.60224 3.55636 2.56201 3.59094H2.56347Z" fill="#BBBCC5"/>
<path fill-rule="evenodd" clip-rule="evenodd" d="M30.7785 1.66243C30.7693 1.63806 30.7861 1.65329 30.7617 1.63501L30.7785 1.66243Z" fill="#40454A"/>
</svg>
