<svg width="270" height="120" viewBox="0 0 270 120" fill="none" xmlns="http://www.w3.org/2000/svg">
<path d="M0 35.2C0 22.8788 0 16.7183 2.39786 12.0122C4.50707 7.87264 7.87264 4.50707 12.0122 2.39786C16.7183 0 22.8788 0 35.2 0H101.544C113.865 0 120.026 0 124.732 2.39786C128.871 4.50707 132.237 7.87264 134.346 12.0122C136.744 16.7183 136.744 22.8788 136.744 35.2V84.8C136.744 97.1212 136.744 103.282 134.346 107.988C132.237 112.127 128.871 115.493 124.732 117.602C120.026 120 113.865 120 101.544 120H35.2C22.8788 120 16.7183 120 12.0122 117.602C7.87264 115.493 4.50707 112.127 2.39786 107.988C0 103.282 0 97.1212 0 84.8V35.2Z" fill="#2B2E33"/>
<path fill-rule="evenodd" clip-rule="evenodd" d="M69.0379 65.1843C69.1668 64.6476 70.0905 62.0397 70.3419 61.2914L74.2445 49.6918C74.6812 48.4069 75.1305 47.1029 75.5453 45.8274C76.6356 42.4523 77.4809 39.1625 78.3889 35.7496L78.7849 34.1773C78.8697 33.8237 78.8414 33.7353 79.0237 33.8079C79.1054 33.8395 79.0991 33.8584 79.1399 34.0415L80.1328 37.8933C80.5005 39.2604 80.8492 40.6054 81.2546 41.9409C82.0621 44.5992 82.9105 47.1282 83.7966 49.7329L88.3684 63.2458C88.5758 63.8583 88.8774 64.597 89.0188 65.2001L69.0379 65.1874V65.1843ZM60.3562 92.933C60.6107 92.0396 60.9375 91.1492 61.2234 90.2747L65.5344 77.1564C66.0435 75.5968 66.6719 73.7877 67.1558 72.2154C67.1652 72.1838 67.1966 72.0796 67.2061 72.0607C67.2532 71.966 67.2281 71.9912 67.3192 71.9407H90.8098L97.9016 92.9425H107.077C106.913 92.3079 105.939 89.5611 105.656 88.7371L98.5646 67.8584C94.7626 56.7356 91.0361 45.5685 87.2215 34.4583L84.7455 27.1746C84.6952 27.0262 84.4658 26.1958 84.3464 26.158H74.0905C73.9334 26.2906 73.4401 27.9323 73.3364 28.2512C72.6671 30.3065 71.8973 32.4377 71.2217 34.5025C70.3136 37.2777 69.349 40.0623 68.4032 42.8375C66.5085 48.3974 64.6641 53.9793 62.7568 59.5423C59.4293 69.2539 56.1771 79.0539 52.8716 88.7813C52.4003 90.1642 51.9572 91.5786 51.4702 92.9425L60.3562 92.933Z" fill="#BBBCC5"/>
<path fill-rule="evenodd" clip-rule="evenodd" d="M136.575 92.9457H270V89.9874H136.575H121.971L121.955 22.5935H113.311C113.239 22.8587 113.289 24.39 113.289 24.7846V92.9457H136.579H136.575Z" fill="#BBBCC5"/>
<path fill-rule="evenodd" clip-rule="evenodd" d="M163.67 53.5661H157.417V32.9526H163.997C167.274 32.9526 171.044 33.3725 173.583 35.229C174.881 36.1761 175.544 36.9939 176.285 38.4683C176.82 39.5323 177.247 41.4203 177.241 42.6832L177.282 43.422C177.282 43.5482 177.238 43.7061 177.241 44.1197C177.244 44.647 177.109 45.6067 176.996 46.0898C176.785 46.9833 176.584 47.5737 176.219 48.3062C175.965 48.8176 175.701 49.2186 175.355 49.6543L175.025 50.0616C174.564 50.5636 173.976 51.0529 173.392 51.4192C173.08 51.6149 172.791 51.7949 172.458 51.9622C169.844 53.2725 166.62 53.5629 163.673 53.5629L163.67 53.5661ZM149.734 84.7309H157.417V60.6698H165.508C166.934 60.6698 168.452 60.512 169.681 60.3067C171 60.0857 172.166 59.8016 173.326 59.4132C175.513 58.6808 178.023 57.3705 179.531 55.9593C179.648 55.8488 179.717 55.814 179.839 55.6909L180.719 54.8511C183.085 52.379 184.354 49.2344 184.838 45.8088C185.033 44.4354 184.999 43.5577 184.999 42.1938C184.999 38.5188 183.952 34.7365 181.976 32.0939C181.325 31.2225 180.669 30.5531 179.839 29.8491C179.12 29.2397 178.067 28.5673 177.209 28.1379C173.985 26.5245 169.97 25.8521 166.366 25.8521H149.734V84.7341V84.7309Z" fill="#2B2E33"/>
<path fill-rule="evenodd" clip-rule="evenodd" d="M227.707 48.4733C228.055 48.4733 228.244 48.5175 228.564 48.5143C228.86 48.5143 229.165 48.5332 229.447 48.5711C230.594 48.7321 231.399 48.849 232.483 49.2152C233.535 49.572 234.632 50.0961 235.562 50.7212C235.757 50.8538 235.927 50.9675 236.115 51.1095C236.297 51.2453 236.451 51.3621 236.621 51.5042C236.8 51.6494 236.941 51.7946 237.13 51.9367C237.425 52.1672 237.799 52.5966 238.076 52.8744C239.163 53.9637 240.42 55.8927 240.995 57.3324C242.952 62.2513 242.61 67.8901 239.688 72.2944C238.877 73.5163 238.025 74.4603 236.932 75.439C235.732 76.5093 234.742 77.0839 233.29 77.7343C232.681 78.009 231.861 78.2363 231.213 78.3973C230.748 78.5141 229.366 78.7383 228.81 78.7352C228.467 78.7352 228.25 78.7762 227.911 78.7762C226.962 78.7762 225.507 78.6246 224.624 78.4226C222.378 77.9048 220.615 77.0082 218.849 75.5211L217.664 74.3719C216.973 73.5415 216.766 73.3742 216.068 72.3229C214.896 70.558 214.076 68.4584 213.778 66.3305C213.68 65.6232 213.567 64.4614 213.564 63.751L213.652 62.0335C213.705 61.5031 213.79 60.919 213.888 60.4233C214.098 59.3656 214.362 58.4848 214.727 57.5692C215.085 56.6694 215.503 55.9053 215.983 55.1381C216.266 54.6898 216.794 53.9416 217.133 53.5406C217.608 52.9786 218.139 52.4008 218.682 51.8957L219.44 51.2611C220.671 50.2413 222.139 49.5499 223.663 49.0573C224.332 48.8427 225.262 48.6848 225.979 48.5932L227.704 48.4764L227.707 48.4733ZM227.257 85.8799C229.74 85.8799 230.924 85.8168 233.271 85.2327C235.182 84.756 236.514 84.1371 238.098 83.2689C239.471 82.5143 240.505 81.6745 241.667 80.6958C242.28 80.1812 243.518 78.893 244.036 78.2742L245.234 76.7682C245.334 76.6356 245.432 76.5125 245.529 76.3672C245.633 76.2125 245.714 76.1084 245.815 75.9568C246 75.679 246.17 75.4169 246.346 75.1359C246.839 74.3466 247.144 73.7057 247.549 72.8975C247.634 72.727 247.691 72.5786 247.766 72.4176C248.049 71.8335 248.297 71.1263 248.517 70.4632C249.736 66.7946 250.05 62.0935 249.089 58.2764C248.847 57.3198 248.498 56.0821 248.105 55.1981C247.958 54.8635 247.835 54.5383 247.684 54.2257C246.459 51.7283 244.998 49.7835 243.138 47.9144C242.472 47.2451 241.718 46.6073 240.992 46.0043C240.376 45.4928 239.276 44.7446 238.604 44.3373C236.102 42.825 233.589 41.9126 230.61 41.4895C229.146 41.2811 228.37 41.2906 226.924 41.2906C223.961 41.2906 220.775 42.1715 218.302 43.4659C216.615 44.3468 215.179 45.4171 213.796 46.7021C213.291 47.1725 212.907 47.5008 212.445 48.0533L212.103 48.407C212.034 48.489 212.037 48.5048 211.958 48.5901C211.258 49.3446 210.425 50.4718 209.891 51.2769L209.118 52.5145C209.024 52.6692 208.945 52.8113 208.86 52.9565C208.778 53.0986 208.728 53.2375 208.637 53.389C208.357 53.8563 208.2 54.2983 207.974 54.7751C207.138 56.521 206.463 59.3025 206.28 61.2031C206.205 61.9861 206.161 62.324 206.161 63.0943C206.161 63.3532 206.136 63.5679 206.126 63.7573L206.425 67.5113C206.767 69.5508 207.157 70.9116 207.949 72.7554L208.848 74.5645C209.284 75.3569 209.913 76.2852 210.453 77.0145L213.322 80.2064C213.451 80.3359 213.551 80.3958 213.69 80.5348L214.777 81.4535C215.855 82.3186 217.243 83.1774 218.513 83.8151C219.276 84.2003 220.624 84.7339 221.419 84.9612C223.276 85.4948 225.121 85.8831 227.245 85.8831L227.257 85.8799Z" fill="#2B2E33"/>
<path fill-rule="evenodd" clip-rule="evenodd" d="M34.4212 14.3089C34.4935 14.6247 34.6977 15.1077 34.8109 15.4266L35.8383 18.2933C35.9672 18.6596 35.9106 18.5586 36.847 18.8427C37.5068 19.0416 37.0826 18.9595 38.3835 18.2555C40.605 17.0526 43.3386 16.3264 45.9403 16.8505C48.8028 17.4251 50.1131 19.733 49.6543 22.2714C49.4878 23.1965 49.1107 23.8153 48.6363 24.3678C47.0181 26.2558 44.363 26.7957 41.7707 26.7957C41.4879 26.7957 39.6812 26.7294 39.5146 26.8652C39.4015 26.9599 39.2444 27.143 39.1282 27.2567C38.6537 27.7334 38.7197 27.5029 38.7197 28.3901C38.7197 28.7595 38.6788 31.3232 38.7542 31.4621C38.7637 31.481 39.4989 32.2261 39.5272 32.2451C39.7157 32.3682 42.0975 32.2893 42.5468 32.2987C44.9443 32.3398 47.769 32.9807 49.4407 34.7235C51.062 36.4126 51.5867 39.3993 50.377 41.7609C49.249 43.9552 47.0683 44.9371 44.4447 45.1234C42.528 45.2591 40.6929 44.9245 39.015 44.3814C38.2515 44.1352 37.5037 43.8415 36.8375 43.4942C36.6773 43.409 35.9043 42.9733 35.8132 42.9764C35.7849 42.9764 34.6946 43.3458 34.6537 43.3679C34.4904 43.4563 33.8965 45.3254 33.7959 45.6254C33.6577 46.0358 33.0481 47.6681 33.001 47.9238C35.7535 49.8718 39.8823 50.9863 44.0645 50.9295C46.1446 50.9011 48.2781 50.5443 50.0471 49.8781C52.5608 48.931 54.6378 47.4218 56.0643 45.2875C56.5293 44.5929 56.919 43.8321 57.252 42.948C57.9213 41.1579 58.157 38.8342 57.7422 36.8136C57.5411 35.8317 57.252 35.0045 56.8373 34.1962C56.0989 32.7629 55.2725 31.8283 54.047 30.837C53.406 30.316 52.6017 29.8488 51.8381 29.4857C51.6684 29.4036 51.3637 29.3152 51.2254 29.2047C51.2411 29.1889 52.5137 28.3996 53.0353 27.9513C53.6166 27.4493 54.0659 27.0357 54.5529 26.3979C57.8145 22.1167 56.7933 16.279 53.1107 13.3428C48.5137 9.67731 40.3347 10.4066 35.3167 13.6428C35.0591 13.8101 34.6286 14.1006 34.4307 14.3026L34.4212 14.3089Z" fill="#BBBCC5"/>
<path fill-rule="evenodd" clip-rule="evenodd" d="M194.686 48.104V42.7651H188.065V84.7308H195.176V61.4085C195.176 60.5023 195.245 59.6972 195.299 58.8637C195.427 56.9378 196.144 54.3773 197.306 52.8335C197.834 52.1294 198.252 51.7032 198.959 51.1664C199.261 50.9391 199.886 50.5697 200.226 50.4277C201.014 50.0993 201.322 49.9699 202.243 49.7836C202.636 49.7047 202.972 49.6636 203.424 49.6163C203.779 49.5784 204.304 49.5405 204.697 49.5405V42.1084C202.805 42.1084 201.272 42.5536 199.764 43.3934L198.843 43.9459C197.881 44.5963 197.291 45.1741 196.493 45.976C195.962 46.5096 195.355 47.2199 194.906 47.8293C194.815 47.9492 194.802 48.0219 194.686 48.1008V48.104Z" fill="#2B2E33"/>
<path fill-rule="evenodd" clip-rule="evenodd" d="M11.0121 16.2823C11.0718 16.6737 11.6406 18.8049 11.782 19.3574C11.8448 19.61 11.9077 19.8499 11.9736 20.112C12.1873 20.9581 11.9391 20.6582 12.9383 21.1096C13.2902 21.2675 13.2871 21.3527 13.6201 21.1759C14.4654 20.7276 15.2603 20.273 16.1118 19.8215L18.6318 18.467C18.6853 19.7899 18.635 21.2296 18.635 22.5651V47.2009C18.635 47.8828 18.6193 48.5774 18.6318 49.2562C18.635 49.4804 18.6695 49.493 18.7827 49.6003C18.8832 49.6951 18.9523 49.7677 19.0497 49.8656C19.1629 49.9792 19.4299 50.3265 19.6185 50.3265H24.1934C24.3757 50.3265 25.1832 49.5119 25.1832 49.332V12.5031C25.1832 12.3042 24.8627 12.0642 24.7464 11.9474C24.6302 11.8306 24.3914 11.5085 24.1934 11.5085H19.983C19.763 11.5085 18.0034 12.4904 17.6923 12.6641C16.9634 13.0745 16.1967 13.4786 15.4551 13.867C14.3994 14.4195 13.1331 15.1551 12.1025 15.6729C11.848 15.7992 11.1787 16.137 11.0059 16.2823H11.0121Z" fill="#BBBCC5"/>
<path fill-rule="evenodd" clip-rule="evenodd" d="M17.844 0.224932C17.6695 0.224932 17.7647 0.212243 17.7647 0.266171L17.8123 0.297893L17.844 0.224932Z" fill="#363B3D"/>
<path fill-rule="evenodd" clip-rule="evenodd" d="M132.206 8.18158C132.167 8.08007 132.237 8.14352 132.136 8.06738L132.206 8.18158Z" fill="#40454A"/>
</svg>
