<svg width="18" height="19" viewBox="0 0 18 19" fill="none" xmlns="http://www.w3.org/2000/svg">
<path id="Vector" d="M3.90075 0.302246C4.66161 0.580614 5.24327 1.09387 5.66327 1.76297C6.16975 2.56984 6.64289 3.40099 7.08097 4.24682C7.40318 4.86906 7.27712 5.25301 6.67624 5.62342C6.22345 5.90235 5.75484 6.1745 5.26023 6.36084C4.35353 6.70301 4.23483 7.54997 4.59208 8.23939C5.20992 9.43079 6.08214 10.4166 7.0171 11.3562C7.9758 12.32 9.06847 13.1105 10.2397 13.7943C10.7609 14.0987 11.3917 13.9586 11.7784 13.4222C11.9791 13.1439 12.1102 12.8158 12.2798 12.5148C12.4957 12.132 12.6987 11.7402 12.9451 11.3771C13.2097 10.9875 13.6494 10.8813 14.0632 11.1117C15.4086 11.8593 16.6143 12.791 17.6691 13.914C18.1208 14.3951 18.0591 14.9355 17.7878 15.4521C17.1671 16.6356 16.2226 17.4978 15.0174 18.0698C14.8094 18.1686 14.5725 18.2126 14.3442 18.2595C13.7812 18.3758 13.243 18.2364 12.7162 18.0619C11.0091 17.495 9.48112 16.5865 8.01593 15.565C4.66839 13.2319 2.21284 10.1665 0.567899 6.44948C0.32144 5.89106 0.104375 5.30044 0.012236 4.69289C-0.00754858 4.56302 -0.000200036 4.42977 0.012236 4.29877C0.0874173 3.49246 0.488761 2.78949 1.02521 2.1808C1.73575 1.3745 2.52261 0.666439 3.56272 0.302246H3.90075Z" fill="white"/>
</svg>
