<svg width="44" height="44" viewBox="0 0 44 44" fill="none" xmlns="http://www.w3.org/2000/svg">
<g id="Group">
<path id="Vector" d="M22.3802 43.9732C22.3802 42.8063 22.3235 41.6967 22.392 40.5948C22.5358 38.2778 22.671 35.9564 22.9475 33.6529C23.2745 30.9288 24.1727 28.4164 26.1435 26.3863C27.7816 24.6996 29.7938 23.7365 32.0542 23.2305C34.2133 22.7472 36.4091 22.571 38.6128 22.4746C40.2348 22.4039 41.8576 22.3485 43.4801 22.2874C43.6301 22.2818 43.7809 22.2866 43.9928 22.2866V22.8148C43.9928 26.3593 44.0133 29.9038 43.9863 33.4483C43.9662 36.0632 43.4142 38.5256 41.6488 40.5752C40.0647 42.4142 38.0507 43.4846 35.6505 43.7681C32.0869 44.1891 28.5045 43.8925 24.9318 43.9697C24.0637 43.9884 23.1947 43.9723 22.3806 43.9723L22.3802 43.9732Z" fill="white"/>
<path id="Vector_2" d="M0.00603595 22.2453C1.89618 22.3234 3.70523 22.3875 5.5134 22.4747C7.81908 22.5864 10.1178 22.77 12.3672 23.3314C15.5624 24.1292 18.0363 25.8919 19.5995 28.8253C20.4275 30.379 20.8783 32.0727 21.051 33.8083C21.3039 36.3561 21.4499 38.9148 21.6117 41.4709C21.6631 42.2831 21.6195 43.1014 21.6195 43.9716H21.1452C17.616 43.9716 14.0864 44.0026 10.5577 43.9607C8.26164 43.9332 6.03576 43.5441 4.10375 42.1675C1.88659 40.5876 0.599459 38.4324 0.214453 35.7481C0.0967281 34.9285 0.0199886 34.0958 0.0147564 33.2688C-0.00704464 29.8093 0.00559993 26.3499 0.00559993 22.8904V22.2449L0.00603595 22.2453Z" fill="white"/>
<path id="Vector_3" d="M43.9929 21.714C42.2489 21.6434 40.5776 21.5888 38.9076 21.5055C36.3835 21.3795 33.8638 21.2229 31.4046 20.562C27.2114 19.4358 24.5613 16.7659 23.4185 12.5963C22.764 10.2086 22.6092 7.75108 22.488 5.29357C22.4086 3.69013 22.3659 2.08538 22.3079 0.481064C22.3031 0.347153 22.3075 0.212806 22.3075 0.0121578C22.5142 0.0121578 22.6964 0.0121578 22.8791 0.0121578C26.3904 0.0121578 29.9021 -0.0223013 33.4125 0.0248074C35.5782 0.0535961 37.6885 0.391209 39.5647 1.61734C41.7897 3.07117 43.1963 5.08289 43.6711 7.69175C43.8713 8.79183 43.9633 9.92375 43.9764 11.043C44.016 14.3812 43.9921 17.7202 43.9929 21.0589C43.9929 21.2447 43.9929 21.4305 43.9929 21.7149V21.714Z" fill="white"/>
<path id="Vector_4" d="M21.5688 0.0112109C21.5688 1.49993 21.6067 2.91712 21.5579 4.33082C21.5108 5.69479 21.4018 7.05877 21.2705 8.4175C21.0486 10.7175 20.7046 12.994 19.6163 15.0808C18.1774 17.8397 15.9106 19.5871 12.9526 20.4555C10.3417 21.2224 7.64405 21.3798 4.9464 21.5063C3.32615 21.5822 1.70546 21.6428 0.00629506 21.7135C0.00629506 21.4945 0.00629506 21.3314 0.00629506 21.1683C0.0071671 17.6412 -0.0141979 14.1142 0.0171956 10.5876C0.0372525 8.34902 0.398713 6.17984 1.70416 4.27673C3.35536 1.8707 5.65232 0.516757 8.5392 0.204008C9.75919 0.0718416 10.9931 0.0299672 12.2214 0.0194986C15.1671 -0.00580056 18.1133 0.0112109 21.0591 0.0112109H21.5683H21.5688Z" fill="white"/>
</g>
</svg>
