<svg width="44" height="44" viewBox="0 0 44 44" fill="none" xmlns="http://www.w3.org/2000/svg">
<g id="Group">
<path id="Vector" d="M22.0093 43.9966C16.7554 43.9966 11.5015 44.0075 6.24795 43.9901C4.74695 43.9853 3.4187 43.4438 2.2719 42.467C1.25445 41.6001 0.576433 40.5146 0.227444 39.2218C0.069878 38.6389 0.0052023 38.0438 0.0052023 37.4404C0.0052023 30.4178 0.0052023 23.3957 0.0052023 16.3731C0.0052023 13.0262 -0.0108554 9.67898 0.0134523 6.33217C0.024738 4.77241 0.569055 3.38892 1.59562 2.20874C2.6083 1.04471 3.88272 0.347945 5.39457 0.0874771C5.69755 0.0351217 6.00487 0.00283592 6.31306 0.00239962C16.7775 0.00109074 27.242 -0.0045811 37.7065 0.00807146C39.2248 0.00981663 40.5761 0.544714 41.7389 1.53729C42.8597 2.49408 43.5594 3.70436 43.8693 5.14413C43.9527 5.53113 43.9987 5.9251 43.9987 6.323C43.9987 16.7854 44.0043 27.2477 43.9922 37.7101C43.9904 39.2039 43.4687 40.5351 42.5111 41.683C41.4472 42.9583 40.0869 43.7039 38.4522 43.9456C38.2334 43.9779 38.0107 43.9945 37.7898 43.9945C32.5298 43.9971 27.2698 43.9966 22.0098 43.9966H22.0093ZM14.0004 14.4276C13.9865 18.8359 17.5662 22.448 21.9607 22.4598C26.3639 22.472 29.9371 18.8935 29.9606 14.449C29.984 10.0372 26.3925 6.42379 21.9824 6.42204C17.5814 6.4203 14.0138 9.99792 13.9999 14.4272L14.0004 14.4276ZM24.8368 28.8393C25.1589 28.7577 25.4762 28.6853 25.7892 28.5963C27.2693 28.1753 28.6636 27.5658 29.9128 26.6526C30.9038 25.9284 31.1126 24.5645 30.3955 23.5863C29.6793 22.609 28.3246 22.4105 27.3392 23.1413C26.8453 23.5078 26.3044 23.7888 25.7375 24.0178C24.0256 24.7089 22.2528 24.9249 20.4263 24.6648C18.9179 24.4502 17.5137 23.9607 16.2579 23.0697C15.7679 22.722 15.2058 22.6134 14.6189 22.7482C13.7095 22.9572 13.1214 23.5292 12.9356 24.4449C12.7464 25.3777 13.0788 26.1421 13.8497 26.694C14.9527 27.4837 16.1729 28.0361 17.4577 28.4501C17.9782 28.6177 18.5081 28.749 19.0616 28.8655C19.0156 28.9174 18.9852 28.9545 18.9518 28.9894C18.4921 29.4737 18.032 29.9575 17.5719 30.4414C16.5362 31.5299 15.4892 32.6076 14.4683 33.7092C13.5546 34.6957 13.7434 36.2236 14.8468 36.9884C15.7214 37.5949 16.903 37.4605 17.6578 36.6568C19.0243 35.2009 20.3859 33.7398 21.7463 32.2778C21.8418 32.1752 21.8952 32.1608 22.0028 32.2682C22.6999 32.961 23.4057 33.6451 24.1076 34.3327C24.9158 35.1241 25.7219 35.9178 26.5319 36.7075C27.0879 37.2493 27.7525 37.4749 28.5134 37.3148C29.3485 37.1394 29.9145 36.6259 30.1568 35.803C30.4007 34.9741 30.2023 34.2306 29.5938 33.618C28.3693 32.386 27.1339 31.1648 25.9055 29.9366C25.5483 29.5793 25.1997 29.2128 24.8364 28.8397L24.8368 28.8393Z" fill="white"/>
<path id="Vector_2" d="M21.9882 17.7464C20.1647 17.7499 18.6906 16.2774 18.688 14.4498C18.6854 12.6117 20.1608 11.1226 21.9834 11.123C23.7887 11.1239 25.2736 12.6095 25.2762 14.4171C25.2784 16.2639 23.8178 17.7434 21.9882 17.7464Z" fill="white"/>
</g>
</svg>
